<?xml version="1.0" encoding="UTF-8"?>
<svg id="Layer_1" data-name="Layer 1" xmlns="http://www.w3.org/2000/svg" viewBox="0 0 138.86 164.28">
  <defs>
    <style>
      .cls-1 {
        fill: #e2e6b0;
      }

      .cls-2 {
        fill: #19270b;
      }

      .cls-3 {
        fill: #211e1f;
      }
    </style>
  </defs>
  <g>
    <path class="cls-1" d="M28.24,56c.41-13.78,6.65-30.52,15.8-40.9C53.46,4.41,67.8,2.49,82.05,1.18c8.08-.74,20.45,1,28.19,3.4,9.35,3.59,17.39,10.34,20.82,17.18,4.65,7.38,5.69,14.74,6.57,23.4.79,32.61-.67,43.22-1.31,47.54-.63,3.41-2.67,16.28-4.67,22.68-1.76,4.85-3.65,11.12-7.06,17.01-2.44,4.22-2.79,6.98-11.64,17.32-6.47,6.8-14.78,12.44-21.26,11.91s-3.36-11.36-11.96-8.47c-1.74.61-8.23,1.94-13.37,5.31-8.47,6.38-26.24,6.44-28.15,0-3.36-9.47,1.14-16.73-4.74-16.82-16.2-.25-32.76,2.65-32.45-7.76.49-16.36,23.42-34.14,23.9-50.5.93-9.37,2.73-20.05,3.48-29.13l-.16,1.74Z"/>
    <path class="cls-2" d="M49.87,164.28c-2.73,0-5.28-.35-7.33-1.02-2.87-.95-4.71-2.51-5.3-4.51-1.49-4.2-1.48-8.09-1.47-10.92.02-4.24-.18-5.15-2.34-5.18-3.15-.05-6.33.02-9.4.09-9.82.22-18.3.41-22.07-3.38-1.38-1.39-2.04-3.24-1.97-5.5.25-8.47,6.29-17.27,12.13-25.79,5.67-8.27,11.54-16.83,11.78-24.71.43-4.36,1.04-8.99,1.64-13.46.62-4.69,1.26-9.51,1.69-13.96.44-14.42,6.88-31.1,16.05-41.5C52.76,3.69,66.98,1.56,81.96.18c8.75-.81,21.26,1.17,28.58,3.44,9.47,3.63,17.85,10.57,21.42,17.69,4.71,7.47,5.77,14.87,6.67,23.75.82,33.51-.74,43.89-1.32,47.79-.12.65-.28,1.56-.47,2.69-.9,5.18-2.57,14.83-4.24,20.14-.33.92-.65,1.84-.99,2.8-1.56,4.46-3.32,9.51-6.16,14.42-.54.93-.97,1.78-1.43,2.68-1.59,3.13-3.39,6.68-10.32,14.78-7.79,8.18-16.03,12.75-22.1,12.25-3.46-.29-4.67-3.05-5.65-5.28-1.2-2.74-1.99-4.56-5.91-3.24-.35.12-.92.28-1.63.48-2.63.74-7.54,2.11-11.51,4.71-4.49,3.39-11.19,4.98-17.03,4.98ZM31.25,140.63c.74,0,1.48,0,2.22.02,4.33.07,4.32,3.53,4.3,7.19-.01,2.84-.03,6.37,1.37,10.29.52,1.75,2.48,2.71,4.03,3.23,5.82,1.92,16.53.88,22.58-3.69,4.29-2.81,9.38-4.24,12.12-5,.66-.18,1.18-.33,1.52-.45,5.68-1.91,7.18,1.55,8.39,4.33,1.06,2.42,1.86,3.91,3.98,4.08,5.38.45,13.21-4,20.45-11.6,6.74-7.88,8.48-11.31,10.02-14.34.47-.93.92-1.81,1.48-2.78,2.75-4.75,4.48-9.7,6.01-14.08.34-.96.66-1.89.98-2.78,1.61-5.15,3.27-14.71,4.16-19.84.2-1.14.36-2.06.47-2.68.57-3.82,2.11-14.07,1.3-47.34-.86-8.54-1.89-15.71-6.41-22.89-3.4-6.79-11.36-13.34-20.33-16.78-7.18-2.22-19.56-4.09-27.74-3.34-14.56,1.34-28.38,3.39-37.36,13.59-8.39,9.53-14.62,25.16-15.47,38.58h.07c-.05.58-.1,1.15-.15,1.74h0c-.43,4.51-1.07,9.37-1.7,14.08-.59,4.46-1.21,9.07-1.63,13.33-.25,8.4-6.28,17.2-12.12,25.72-5.67,8.27-11.54,16.83-11.78,24.71-.05,1.72.4,3.03,1.39,4.03,3.16,3.18,11.63,2.99,20.6,2.79,2.37-.05,4.8-.11,7.25-.11Z"/>
  </g>
  <g>
    <path class="cls-3" d="M85.73,40.02c-1.63,2.28-2.4,5.11-2.71,7.92-.64,5.94-.44,12.12,2.64,17.2,1.34,2.21,4.47,4.35,7.01,4.41,1.88.04,4.34-1.27,5.43-2.83s1.78-3.6,2.18-5.47c1.24-5.76,1.73-15.21-.92-20.79-2.75-5.77-10.05-5.42-13.62-.43h0Z"/>
    <path class="cls-3" d="M92.76,70.05s-.07,0-.1,0c-2.88-.07-6.1-2.47-7.42-4.65-2.67-4.4-3.53-9.97-2.71-17.51.36-3.32,1.3-6.06,2.8-8.15h0c1.96-2.74,5.09-4.27,8.21-4,2.74.24,5.03,1.88,6.27,4.5,2.6,5.46,2.32,14.77.96,21.11-.34,1.6-1.01,3.88-2.26,5.66-1.19,1.7-3.75,3.05-5.75,3.05ZM86.14,40.31c-1.4,1.95-2.28,4.54-2.62,7.68-.79,7.31.02,12.68,2.57,16.88,1.19,1.97,4.12,4.11,6.59,4.17,1.69.06,3.99-1.16,5.01-2.62,1.15-1.64,1.78-3.78,2.1-5.29,1.33-6.18,1.61-15.22-.89-20.47-1.11-2.32-3.04-3.72-5.46-3.94-2.76-.25-5.55,1.13-7.3,3.58h0Z"/>
  </g>
  <g>
    <path class="cls-3" d="M54.63,38.77c-2.03,1.94-3.31,4.57-4.13,7.28-1.73,5.71-2.67,11.83-.59,17.39.9,2.42,3.58,5.1,6.07,5.63,1.84.39,4.5-.44,5.86-1.78s2.41-3.21,3.15-4.98c2.28-5.44,4.52-14.62,2.94-20.6-1.63-6.18-8.88-7.18-13.31-2.94h0Z"/>
    <path class="cls-3" d="M56.96,69.67c-.38,0-.75-.03-1.09-.11-2.82-.6-5.54-3.55-6.43-5.95-1.81-4.82-1.62-10.45.58-17.71.97-3.19,2.4-5.71,4.26-7.49h0c2.43-2.33,5.81-3.25,8.8-2.41,2.65.75,4.59,2.78,5.33,5.59,1.54,5.85-.45,14.95-2.96,20.92-.63,1.51-1.71,3.62-3.27,5.14-1.25,1.22-3.4,2.02-5.23,2.02ZM54.97,39.14c-1.73,1.66-3.08,4.04-4,7.06-2.14,7.04-2.33,12.46-.6,17.07.81,2.15,3.29,4.8,5.7,5.32,1.66.35,4.13-.4,5.41-1.65,1.13-1.11,2.19-2.77,3.04-4.81,2.45-5.82,4.4-14.65,2.92-20.28-.66-2.49-2.3-4.22-4.64-4.88-2.66-.75-5.66.08-7.84,2.17h0Z"/>
  </g>
  <g>
    <path class="cls-3" d="M57.4,89.99c-1.69,2.5-1.63,2.69-3.11,5.45-1.52,3.07-2.25,12.06,2.43,11.78,5.34-.54,7.93-1.98,12.47-1.91,3.37.04,11.92,5.75,15.71,4.8,2.43-.61,3.7-2.85,4.43-5.03,2.22-5.76-1.57-15.9-6.33-21.49-4.92-5.77-13.07-5.22-19.46-.23l-2.97,2.97-3.18,3.67Z"/>
    <path class="cls-3" d="M83.94,110.71c-2.32,0-5.51-1.4-8.6-2.76-2.48-1.09-4.82-2.12-6.16-2.14-2.5-.03-4.35.39-6.5.88-1.66.38-3.53.8-5.91,1.04-1.29.09-2.33-.45-3.04-1.52-1.89-2.85-1-8.73.11-10.98.42-.78.71-1.34.95-1.82.64-1.24.95-1.86,2.2-3.69l.04-.05,3.18-3.67,2.99-2.99c7.08-5.53,15.36-5.41,20.19.26,4.95,5.8,8.71,16.03,6.41,21.99-1,2.99-2.61,4.79-4.77,5.33-.33.08-.7.12-1.08.12ZM68.92,104.8c.09,0,.19,0,.28,0,1.54.02,3.97,1.09,6.55,2.22,3.29,1.45,7.03,3.1,9.04,2.59,1.84-.46,3.17-2,4.08-4.7,2.14-5.57-1.57-15.53-6.23-21-4.46-5.24-12.18-5.31-18.77-.16l-2.92,2.93-3.14,3.62c-1.19,1.76-1.48,2.33-2.12,3.57-.24.48-.54,1.05-.95,1.82-1.14,2.3-1.67,7.7-.17,9.97.51.78,1.21,1.14,2.12,1.07,2.3-.23,4.07-.63,5.77-1.02,2.05-.46,3.99-.9,6.46-.9Z"/>
  </g>
</svg>