<?xml version="1.0" encoding="UTF-8"?>
<svg xmlns="http://www.w3.org/2000/svg" width="165.914" height="189.276" viewBox="0 0 165.914 189.276">
  <g id="Layer_1" data-name="Layer 1">
    <path d="M48.984,56.534c-.122-14.132,5.479-28.238,15.289-38.411S87.99,1.837,102.119,1.526c17.632-.388,38.42,3.535,48.579,17.952,8.838,12.543,9.354,34.368,8.958,49.707-.756,29.301,2.916,55.064,4.7,84.414.358,5.882-.949,11.905-3.516,17.21s-7.585,9.81-13.47,10.113-11.725-5.226-10.952-11.068c-.671,1.872-1.565,4.08-2.237,5.952-10.792,6.614-25.873,5.216-35.265-3.27-1.948,6.827-8.303,12.166-15.363,12.909s-14.387-3.159-17.712-9.431c-1.274,7.425-9.408,12.36-16.914,11.703s-10.677-7.221-14.501-13.712c-3.761-6.384-6.487-11.961-9.184-19.517-3.607-10.103-4.758-21.43-12.451-30.433-5.796-6.782-6.737-15.647,3.101-19.07,6.686-2.326,15.8-.016,22.237-1.469,18.108-4.085,10.959-34.849,10.855-46.983Z" style="fill: #f1f2f2; stroke: #221f20; stroke-miterlimit: 10; stroke-width: 3px;"/>
    <path d="M39.384,90.657c2.231-3.686-41.506-4.87-37.642.943,3.213,4.834,34.779,3.787,37.642-.943Z" style="fill: none; stroke: #221f20; stroke-miterlimit: 10; stroke-width: 3px;"/>
    <path d="M29.049,65.574c.603.088,1.205.183,1.805.283,1.222.205,2.466.444,3.539,1.062s1.962,1.691,2.037,2.927c.091,1.492-1.027,2.846-2.372,3.5s-5.285.547-6.777.637l1.766-8.409Z" style="fill: none; stroke: #221f20; stroke-miterlimit: 10; stroke-width: 2px;"/>
    <path d="M28.78,65.541c-1.048,2.638-2.088,12.504-4.193,14.408-2.544,2.302-9.744,3.37-12.847,1.906s-4.518-2.342-5.926-5.47-.335-7.795-.967-11.167c8.189-1.073,15.485-1.155,23.656.042l.277.28Z" style="fill: none; stroke: #221f20; stroke-miterlimit: 10; stroke-width: 2px;"/>
    <path d="M86.44,43.678c-1.086,1.86-1.599,4.159-1.803,6.448-.429,4.834-.291,9.87,1.756,14.005.889,1.797,2.971,3.543,4.66,3.592,1.251.036,2.885-1.034,3.613-2.307s1.181-2.929,1.449-4.458c.823-4.694,1.153-12.384-.615-16.93-1.827-4.7-6.688-4.411-9.06-.349Z" style="fill: #221f20; stroke: #221f20; stroke-miterlimit: 10;"/>
    <path d="M113.508,43.678c-1.086,1.86-1.599,4.159-1.803,6.448-.429,4.834-.291,9.87,1.756,14.005.889,1.797,2.971,3.543,4.66,3.592,1.251.036,2.885-1.034,3.613-2.307s1.181-2.929,1.449-4.458c.823-4.694,1.153-12.384-.615-16.93-1.827-4.7-6.688-4.411-9.06-.349Z" style="fill: #221f20; stroke: #221f20; stroke-miterlimit: 10;"/>
    <path d="M10.128,60.832s-1.324-.709-1.088-1.987,2.601-.426,2.034-2.365-2.327-1.514-2.062-3.737,2.15-2.223,2.15-2.223c0,0,1.52-.047-.088,1.514-1.867,1.812.568,2.649.899,3.122s.804,1.703.52,2.318-1.846,1.277-1.703,1.75,1.372,1.608,1.372,1.608h-2.034Z" style="fill: #221f20;"/>
    <path d="M19.986,60.832s-1.324-.709-1.088-1.987,2.601-.426,2.034-2.365-2.327-1.514-2.062-3.737,2.15-2.223,2.15-2.223c0,0,1.52-.047-.088,1.514-1.867,1.812.568,2.649.899,3.122s.804,1.703.52,2.318-1.846,1.277-1.703,1.75,1.372,1.608,1.372,1.608h-2.034Z" style="fill: #221f20;"/>
    <path d="M15.057,60.354s-1.324-.709-1.088-1.987,2.601-.426,2.034-2.365-2.327-1.514-2.062-3.737,2.15-2.223,2.15-2.223c0,0,1.52-.047-.088,1.514-1.867,1.812.568,2.649.899,3.122s.804,1.703.52,2.318-1.846,1.277-1.703,1.75,1.372,1.608,1.372,1.608h-2.034Z" style="fill: #221f20;"/>
  </g>
  <g id="hotspot">
    <circle id="hotspotbund" cx="39.467" cy="155.201" r="26.99" style="fill: #2e522d;"/>
    <circle id="hotspotmidt" cx="31.86" cy="64.389" r="26.99" style="fill: #2e522d;"/>
    <circle id="hotspottop" cx="137.424" cy="105.946" r="26.99" style="fill: #2e522d;"/>
  </g>
</svg>